<svg width="3965" height="1333" xmlns="http://www.w3.org/2000/svg" xmlns:xlink="http://www.w3.org/1999/xlink" overflow="hidden"><defs><clipPath id="clip0"><rect x="209" y="570" width="3965" height="1333"/></clipPath></defs><g clip-path="url(#clip0)" transform="translate(-209 -570)"><rect x="1035.5" y="1462.5" width="583" height="200" stroke="#191A26" stroke-width="6.875" stroke-miterlimit="8" fill="#494B65"/><text fill="#FFFFFF" font-family="Open Sans,Open Sans_MSFontService,sans-serif" font-weight="400" font-size="83" transform="matrix(1 0 0 1 1131.88 1591)">Input Text</text><rect x="1035.5" y="847.5" width="583" height="200" stroke="#191A26" stroke-width="6.875" stroke-miterlimit="8" fill="#494B65"/><text fill="#FFFFFF" font-family="Open Sans,Open Sans_MSFontService,sans-serif" font-weight="400" font-size="83" transform="matrix(1 0 0 1 1254.77 976)">AST</text><rect x="1748.5" y="847.5" width="583" height="200" stroke="#191A26" stroke-width="6.875" stroke-miterlimit="8" fill="#494B65"/><text fill="#FFFFFF" font-family="Open Sans,Open Sans_MSFontService,sans-serif" font-weight="400" font-size="83" transform="matrix(1 0 0 1 1789.3 926)">Transformed <tspan font-size="83" x="178.75" y="99">AST</tspan></text><rect x="2461.5" y="847.5" width="583" height="200" stroke="#191A26" stroke-width="6.875" stroke-miterlimit="8" fill="#494B65"/><text fill="#FFFFFF" font-family="Open Sans,Open Sans_MSFontService,sans-serif" font-weight="400" font-size="83" transform="matrix(1 0 0 1 2547.56 976)">Target AST</text><rect x="3175.5" y="847.5" width="583" height="200" stroke="#191A26" stroke-width="6.875" stroke-miterlimit="8" fill="#494B65"/><text fill="#FFFFFF" font-family="Open Sans,Open Sans_MSFontService,sans-serif" font-weight="400" font-size="83" transform="matrix(1 0 0 1 3276.31 926)">Simplified  <tspan font-size="83" x="118.319" y="99">AST</tspan></text><rect x="3175.5" y="1462.5" width="583" height="200" stroke="#191A26" stroke-width="6.875" stroke-miterlimit="8" fill="#494B65"/><text fill="#FFFFFF" font-family="Open Sans,Open Sans_MSFontService,sans-serif" font-weight="400" font-size="83" transform="matrix(1 0 0 1 3236.49 1591)">Output Text</text><path d="M2396 613 2396 1895.99" stroke="#8A8CAA" stroke-width="13.75" stroke-linejoin="round" stroke-miterlimit="10" stroke-dasharray="55 41.25" fill="none" fill-rule="evenodd"/><path d="M0 0 3556.6 0.000360892" stroke="#8A8CAA" stroke-width="13.75" stroke-linejoin="round" stroke-miterlimit="10" stroke-dasharray="55 41.25" fill="none" fill-rule="evenodd" transform="matrix(-1 0 0 1 4173.6 1255)"/><text fill="#494B65" font-family="Arial,Arial_MSFontService,sans-serif" font-weight="400" font-size="83" transform="matrix(1 0 0 1 259.169 977)">AST<tspan font-size="83" x="0" y="615">Text</tspan><tspan font-size="83" x="1042.84" y="-288">Format A</tspan><tspan font-size="83" x="2717.91" y="-302">Format B</tspan></text><path d="M3.4375-2.99395e-06 3.43784 391.441-3.43716 391.441-3.4375 2.99395e-06ZM13.7503 386.858 0.000360892 414.358-13.7497 386.858Z" fill="#494B65" transform="matrix(1 0 0 -1 1326.5 1461.86)"/><path d="M1618.5 944.062 1725.77 944.063 1725.77 950.938 1618.5 950.937ZM1721.18 933.75 1748.68 947.5 1721.18 961.25Z" fill="#494B65"/><path d="M2331.5 944.062 2438.77 944.063 2438.77 950.938 2331.5 950.937ZM2434.18 933.75 2461.68 947.5 2434.18 961.25Z" fill="#494B65"/><path d="M3044.5 944.062 3151.77 944.063 3151.77 950.938 3044.5 950.937ZM3147.18 933.75 3174.68 947.5 3147.18 961.25Z" fill="#494B65"/><path d="M3469.94 1047.5 3469.94 1438.94 3463.06 1438.94 3463.06 1047.5ZM3480.25 1434.36 3466.5 1461.86 3452.75 1434.36Z" fill="#494B65"/></g></svg>