<svg width="3794" height="1784" xmlns="http://www.w3.org/2000/svg" xmlns:xlink="http://www.w3.org/1999/xlink" overflow="hidden"><defs><clipPath id="clip0"><rect x="299" y="296" width="3794" height="1784"/></clipPath><linearGradient x1="2200" y1="455" x2="2200" y2="723" gradientUnits="userSpaceOnUse" spreadMethod="reflect" id="fill1"><stop offset="0" stop-color="#9BCCD2"/><stop offset="0.5" stop-color="#8EC1C7"/><stop offset="1" stop-color="#79BCC3"/></linearGradient><linearGradient x1="2200" y1="1139" x2="2200" y2="1407" gradientUnits="userSpaceOnUse" spreadMethod="reflect" id="fill2"><stop offset="0" stop-color="#9BCCD2"/><stop offset="0.5" stop-color="#8EC1C7"/><stop offset="1" stop-color="#79BCC3"/></linearGradient><linearGradient x1="2200" y1="1810" x2="2200" y2="2079" gradientUnits="userSpaceOnUse" spreadMethod="reflect" id="fill3"><stop offset="0" stop-color="#9BCCD2"/><stop offset="0.5" stop-color="#8EC1C7"/><stop offset="1" stop-color="#79BCC3"/></linearGradient><linearGradient x1="3749.5" y1="455" x2="3749.5" y2="723" gradientUnits="userSpaceOnUse" spreadMethod="reflect" id="fill4"><stop offset="0" stop-color="#FFD19C"/><stop offset="0.5" stop-color="#FFCA8E"/><stop offset="1" stop-color="#FFC579"/></linearGradient><linearGradient x1="3749.5" y1="1134" x2="3749.5" y2="1402" gradientUnits="userSpaceOnUse" spreadMethod="reflect" id="fill5"><stop offset="0" stop-color="#FFD19C"/><stop offset="0.5" stop-color="#FFCA8E"/><stop offset="1" stop-color="#FFC579"/></linearGradient><linearGradient x1="3749.5" y1="794" x2="3749.5" y2="1063" gradientUnits="userSpaceOnUse" spreadMethod="reflect" id="fill6"><stop offset="0" stop-color="#FFD19C"/><stop offset="0.5" stop-color="#FFCA8E"/><stop offset="1" stop-color="#FFC579"/></linearGradient><linearGradient x1="3749.5" y1="1471" x2="3749.5" y2="1739" gradientUnits="userSpaceOnUse" spreadMethod="reflect" id="fill7"><stop offset="0" stop-color="#FFD19C"/><stop offset="0.5" stop-color="#FFCA8E"/><stop offset="1" stop-color="#FFC579"/></linearGradient><linearGradient x1="3749.5" y1="1810" x2="3749.5" y2="2079" gradientUnits="userSpaceOnUse" spreadMethod="reflect" id="fill8"><stop offset="0" stop-color="#FFD19C"/><stop offset="0.5" stop-color="#FFCA8E"/><stop offset="1" stop-color="#FFC579"/></linearGradient><linearGradient x1="642.5" y1="794" x2="642.5" y2="1063" gradientUnits="userSpaceOnUse" spreadMethod="reflect" id="fill9"><stop offset="0" stop-color="#EF9C9D"/><stop offset="0.5" stop-color="#E48E90"/><stop offset="1" stop-color="#E6797B"/></linearGradient><linearGradient x1="642.5" y1="1471" x2="642.5" y2="1739" gradientUnits="userSpaceOnUse" spreadMethod="reflect" id="fill10"><stop offset="0" stop-color="#EF9C9D"/><stop offset="0.5" stop-color="#E48E90"/><stop offset="1" stop-color="#E6797B"/></linearGradient></defs><g clip-path="url(#clip0)" transform="translate(-299 -296)"><path d="M1858 499.667C1858 474.998 1878 455 1902.67 455L2497.33 455C2522 455 2542 474.998 2542 499.667L2542 678.333C2542 703.002 2522 723 2497.33 723L1902.67 723C1878 723 1858 703.002 1858 678.333Z" stroke="#0098A1" stroke-width="2.29167" stroke-miterlimit="8" fill="url(#fill1)" fill-rule="evenodd"/><text font-family="Arial,Arial_MSFontService,sans-serif" font-weight="400" font-size="83" transform="matrix(1 0 0 1 2023.54 620)">JSON<tspan font-size="83" x="220" y="0">-</tspan>LD</text><path d="M1858 1183.67C1858 1159 1878 1139 1902.67 1139L2497.33 1139C2522 1139 2542 1159 2542 1183.67L2542 1362.33C2542 1387 2522 1407 2497.33 1407L1902.67 1407C1878 1407 1858 1387 1858 1362.33Z" stroke="#0098A1" stroke-width="2.29167" stroke-miterlimit="8" fill="url(#fill2)" fill-rule="evenodd"/><text font-family="Arial,Arial_MSFontService,sans-serif" font-weight="400" font-size="83" transform="matrix(1 0 0 1 2060.21 1254)">BMGen<tspan font-size="83" x="-16.0416" y="99">(Python)</tspan></text><path d="M1858 1854.83C1858 1830.07 1878.07 1810 1902.83 1810L2497.17 1810C2521.93 1810 2542 1830.07 2542 1854.83L2542 2034.17C2542 2058.93 2521.93 2079 2497.17 2079L1902.83 2079C1878.07 2079 1858 2058.93 1858 2034.17Z" stroke="#0098A1" stroke-width="2.29167" stroke-miterlimit="8" fill="url(#fill3)" fill-rule="evenodd"/><text font-family="Arial,Arial_MSFontService,sans-serif" font-weight="400" font-size="83" transform="matrix(1 0 0 1 2119.79 1975)">BCL</text><path d="M3407 499.668C3407 474.998 3427 455 3451.67 455L4047.33 455C4072 455 4092 474.998 4092 499.668L4092 678.333C4092 703.002 4072 723 4047.33 723L3451.67 723C3427 723 3407 703.002 3407 678.333Z" stroke="#F6A800" stroke-width="2.29167" stroke-miterlimit="8" fill="url(#fill4)" fill-rule="evenodd"/><text font-family="Arial,Arial_MSFontService,sans-serif" font-weight="400" font-size="83" transform="matrix(1 0 0 1 3581.96 620)">BaSyTec</text><path d="M3407 1178.67C3407 1154 3427 1134 3451.67 1134L4047.33 1134C4072 1134 4092 1154 4092 1178.67L4092 1357.33C4092 1382 4072 1402 4047.33 1402L3451.67 1402C3427 1402 3407 1382 3407 1357.33Z" stroke="#F6A800" stroke-width="2.29167" stroke-miterlimit="8" fill="url(#fill5)" fill-rule="evenodd"/><text font-family="Arial,Arial_MSFontService,sans-serif" font-weight="400" font-size="83" transform="matrix(1 0 0 1 3607.17 1298)">Neware</text><path d="M3407 838.834C3407 814.073 3427.07 794 3451.83 794L4047.17 794C4071.93 794 4092 814.073 4092 838.834L4092 1018.17C4092 1042.93 4071.93 1063 4047.17 1063L3451.83 1063C3427.07 1063 3407 1042.93 3407 1018.17Z" stroke="#F6A800" stroke-width="2.29167" stroke-miterlimit="8" fill="url(#fill6)" fill-rule="evenodd"/><text font-family="Arial,Arial_MSFontService,sans-serif" font-weight="400" font-size="83" transform="matrix(1 0 0 1 3593.42 959)">Digatron</text><path d="M3407 1515.67C3407 1491 3427 1471 3451.67 1471L4047.33 1471C4072 1471 4092 1491 4092 1515.67L4092 1694.33C4092 1719 4072 1739 4047.33 1739L3451.67 1739C3427 1739 3407 1719 3407 1694.33Z" stroke="#F6A800" stroke-width="2.29167" stroke-miterlimit="8" fill="url(#fill7)" fill-rule="evenodd"/><text font-family="Arial,Arial_MSFontService,sans-serif" font-weight="400" font-size="83" transform="matrix(1 0 0 1 3614.04 1636)">Maccor</text><path d="M3407 1854.83C3407 1830.07 3427.07 1810 3451.83 1810L4047.17 1810C4071.93 1810 4092 1830.07 4092 1854.83L4092 2034.17C4092 2058.93 4071.93 2079 4047.17 2079L3451.83 2079C3427.07 2079 3407 2058.93 3407 2034.17Z" stroke="#F6A800" stroke-width="2.29167" stroke-miterlimit="8" fill="url(#fill8)" fill-rule="evenodd"/><text font-family="Arial,Arial_MSFontService,sans-serif" font-weight="400" font-size="83" transform="matrix(1 0 0 1 3664.46 1975)">PEC</text><path d="M3.19904-4.04389 847.559 663.912 841.161 672-3.19904 4.04389ZM849.914 652.626 864.581 683.952 830.72 676.889Z" transform="matrix(1 0 0 -1 2542 1272.95)"/><path d="M0.0324778-5.15615 838.832 0.127328 838.767 10.4396-0.0324778 5.15615ZM833.741-10.2174 864.581 5.44587 833.546 20.7194Z" transform="matrix(1 0 0 -1 2542 1273.45)"/><path d="M1.90957-4.78962 842.542 330.362 838.723 339.941-1.90957 4.78962ZM841.571 318.873 864.581 344.699 830.114 347.61Z" transform="matrix(1 0 0 -1 2542 1272.7)"/><path d="M2205.16 748.781 2205.16 1112.85 2194.84 1112.85 2194.84 748.781ZM2184.53 753.937 2200 723 2215.47 753.937ZM2215.47 1107.7 2200 1138.63 2184.53 1107.7Z"/><path d="M5.15624-0.00738914 5.6924 374.127-4.62009 374.141-5.15624 0.00738914ZM15.9975 368.956 0.573097 399.915-14.94 369Z" transform="matrix(-1 0 0 1 2200.57 1410)"/><path d="M2543.85 1268.19 2582.36 1282.97 2578.66 1292.6 2540.15 1277.81ZM2611.24 1294.06 2649.75 1308.85 2646.05 1318.47 2607.54 1303.69ZM2678.63 1319.94 2717.14 1334.72 2713.44 1344.35 2674.93 1329.56ZM2746.02 1345.81 2784.53 1360.6 2780.83 1370.22 2742.32 1355.44ZM2813.41 1371.68 2851.92 1386.47 2848.22 1396.1 2809.72 1381.31ZM2880.8 1397.56 2919.31 1412.34 2915.62 1421.97 2877.11 1407.19ZM2948.19 1423.43 2986.7 1438.22 2983.01 1447.85 2944.5 1433.06ZM3015.58 1449.31 3054.09 1464.09 3050.4 1473.72 3011.89 1458.94ZM3082.98 1475.18 3121.48 1489.97 3117.79 1499.6 3079.28 1484.81ZM3150.37 1501.06 3188.88 1515.84 3185.18 1525.47 3146.67 1510.69ZM3217.76 1526.93 3256.27 1541.72 3252.57 1551.35 3214.06 1536.56ZM3285.15 1552.81 3323.66 1567.59 3319.96 1577.22 3281.45 1562.43ZM3352.54 1578.68 3384.36 1590.9 3380.67 1600.53 3348.84 1588.31ZM3383.24 1579.42 3406.58 1604.95 3372.15 1608.31Z"/><path d="M2545.16 1268.93 2577.75 1294.22 2571.42 1302.37 2538.84 1277.07ZM2602.18 1313.19 2634.77 1338.49 2628.44 1346.64 2595.86 1321.34ZM2659.2 1357.46 2691.79 1382.76 2685.46 1390.9 2652.88 1365.61ZM2716.23 1401.73 2748.81 1427.03 2742.48 1435.17 2709.9 1409.88ZM2773.25 1446 2805.83 1471.29 2799.51 1479.44 2766.92 1454.14ZM2830.27 1490.27 2862.85 1515.56 2856.53 1523.71 2823.94 1498.41ZM2887.29 1534.53 2919.87 1559.83 2913.55 1567.97 2880.96 1542.68ZM2944.31 1578.8 2976.89 1604.1 2970.57 1612.24 2937.99 1586.95ZM3001.33 1623.07 3033.91 1648.36 3027.59 1656.51 2995.01 1631.21ZM3058.35 1667.34 3090.94 1692.63 3084.61 1700.78 3052.03 1675.48ZM3115.37 1711.6 3147.96 1736.9 3141.63 1745.05 3109.05 1719.75ZM3172.39 1755.87 3204.98 1781.17 3198.65 1789.31 3166.07 1764.02ZM3229.42 1800.14 3262 1825.43 3255.68 1833.58 3223.09 1808.28ZM3286.44 1844.41 3319.02 1869.7 3312.7 1877.85 3280.11 1852.55ZM3343.46 1888.67 3376.04 1913.97 3369.72 1922.12 3337.13 1896.82ZM3391.63 1913.02 3406.58 1944.21 3372.66 1937.45Z"/><path d="M300 838.834C300 814.073 320.073 794 344.834 794L940.165 794C964.927 794 985 814.073 985 838.834L985 1018.17C985 1042.93 964.927 1063 940.165 1063L344.834 1063C320.073 1063 300 1042.93 300 1018.17Z" stroke="#CC071E" stroke-width="2.29167" stroke-miterlimit="8" fill="url(#fill9)" fill-rule="evenodd"/><text font-family="Arial,Arial_MSFontService,sans-serif" font-weight="400" font-size="83" transform="matrix(1 0 0 1 511.861 959)">BattMo</text><path d="M300 1515.67C300 1491 319.998 1471 344.667 1471L940.333 1471C965.002 1471 985 1491 985 1515.67L985 1694.33C985 1719 965.002 1739 940.333 1739L344.667 1739C319.998 1739 300 1719 300 1694.33Z" stroke="#CC071E" stroke-width="2.29167" stroke-miterlimit="8" fill="url(#fill10)" fill-rule="evenodd"/><text font-family="Arial,Arial_MSFontService,sans-serif" font-weight="400" font-size="83" transform="matrix(1 0 0 1 475.195 1636)">PyBaMM</text><path d="M1855.97 1949.06 1007.16 1619.15 1010.9 1609.53 1859.71 1939.45ZM1008.23 1630.63 985 1605 1019.44 1601.79Z"/><path d="M1855.95 1277.49 1817.58 1262.34 1821.37 1252.75 1859.73 1267.9ZM1788.81 1250.98 1750.44 1235.83 1754.23 1226.24 1792.59 1241.39ZM1721.66 1224.46 1683.3 1209.31 1687.08 1199.72 1725.45 1214.87ZM1654.52 1197.95 1616.16 1182.8 1619.94 1173.21 1658.31 1188.36ZM1587.38 1171.43 1549.01 1156.28 1552.8 1146.69 1591.17 1161.84ZM1520.24 1144.92 1481.87 1129.77 1485.66 1120.18 1524.03 1135.33ZM1453.1 1118.4 1414.73 1103.25 1418.52 1093.66 1456.89 1108.81ZM1385.96 1091.89 1347.59 1076.74 1351.38 1067.14 1389.74 1082.3ZM1318.81 1065.37 1280.45 1050.22 1284.24 1040.63 1322.6 1055.78ZM1251.67 1038.86 1213.31 1023.71 1217.09 1014.11 1255.46 1029.27ZM1184.53 1012.34 1146.17 997.191 1149.95 987.599 1188.32 1002.75ZM1117.39 985.827 1079.02 970.675 1082.81 961.084 1121.18 976.235ZM1050.25 959.312 1011.88 944.16 1015.67 934.569 1054.04 949.72ZM1008.09 953.751 985 928 1019.46 924.976Z"/><text font-family="Arial,Arial_MSFontService,sans-serif" font-weight="700" font-size="83" transform="matrix(1 0 0 1 431.653 401)">Simulation<tspan font-size="83" x="1477.3" y="0">Data exchange</tspan><tspan font-size="83" x="3168.64" y="0">Cyclers</tspan></text></g></svg>