<svg width="4473" height="1529" xmlns="http://www.w3.org/2000/svg" xmlns:xlink="http://www.w3.org/1999/xlink" overflow="hidden"><defs><clipPath id="clip0"><rect x="19" y="566" width="4473" height="1529"/></clipPath></defs><g clip-path="url(#clip0)" transform="translate(-19 -566)"><text fill="#494B65" font-family="Arial,Arial_MSFontService,sans-serif" font-weight="400" font-size="64" transform="matrix(1 0 0 1 3948.01 1871)">unit</text><rect x="1909.5" y="569.5" width="577" height="134" stroke="#191A26" stroke-width="6.875" stroke-miterlimit="8" fill="#494B65"/><text fill="#FFFFFF" font-family="Open Sans,Open Sans_MSFontService,sans-serif" font-weight="400" font-size="64" transform="matrix(1 0 0 1 2067.56 657)">Program</text><rect x="1909.5" y="915.5" width="577" height="133" stroke="#191A26" stroke-width="6.875" stroke-miterlimit="8" fill="#494B65"/><text fill="#FFFFFF" font-family="Open Sans,Open Sans_MSFontService,sans-serif" font-weight="400" font-size="64" transform="matrix(1 0 0 1 2042.35 1003)">Statement</text><rect x="651.5" y="1260.5" width="578" height="134" stroke="#191A26" stroke-width="6.875" stroke-miterlimit="8" fill="#494B65"/><text fill="#FFFFFF" font-family="Open Sans,Open Sans_MSFontService,sans-serif" font-weight="400" font-size="64" transform="matrix(1 0 0 1 810.307 1348)">SetValue</text><rect x="23.4999" y="1260.5" width="577" height="134" stroke="#191A26" stroke-width="6.875" stroke-miterlimit="8" fill="#E8E8E8"/><text fill="#0E2841" font-family="Open Sans,Open Sans_MSFontService,sans-serif" font-weight="400" font-size="64" transform="matrix(1 0 0 1 57.7875 1348)">StepType.Charge</text><path d="M2201.94 703.5 2201.94 892.801 2195.06 892.801 2195.06 703.5ZM2212.25 888.217 2198.5 915.717 2184.75 888.217Z" fill="#494B65"/><path d="M0.57201-3.38957 1235.51 205.014 1234.37 211.793-0.57201 3.38957ZM1232.71 194.082 1257.54 212.217 1228.13 221.199Z" fill="#494B65" transform="matrix(-1 0 0 1 2198.04 1048.5)"/><path d="M0.384307-3.41595 1863.92 206.238 1863.15 213.07-0.384307 3.41595ZM1860.52 195.478 1886.31 212.217 1857.44 222.806Z" fill="#494B65" transform="matrix(-1 0 0 1 2197.81 1048.5)"/><path d="M1.09927-3.25699 608.155 201.631 605.957 208.145-1.09927 3.25699ZM607.11 190.394 628.769 212.217 598.316 216.45Z" fill="#494B65" transform="matrix(-1 0 0 1 940.269 1394.5)"/><text fill="#494B65" font-family="Arial,Arial_MSFontService,sans-serif" font-weight="400" font-size="64" transform="matrix(1 0 0 1 2027.42 832)">lines<tspan font-size="64" x="-1431.77" y="356">operator</tspan><tspan font-size="64" x="-184.491" y="361">parameters</tspan><tspan font-size="64" x="-1732.28" y="680">channel</tspan></text><rect x="23.4999" y="1606.5" width="577" height="133" stroke="#191A26" stroke-width="6.875" stroke-miterlimit="8" fill="#E8E8E8"/><text fill="#0E2841" font-family="Open Sans,Open Sans_MSFontService,sans-serif" font-weight="400" font-size="64" transform="matrix(1 0 0 1 280.079 1694)">“I”</text><rect x="651.5" y="1606.5" width="578" height="133" stroke="#191A26" stroke-width="6.875" stroke-miterlimit="8" fill="#494B65"/><text fill="#FFFFFF" font-family="Open Sans,Open Sans_MSFontService,sans-serif" font-weight="400" font-size="64" transform="matrix(1 0 0 1 764.187 1694)">ValueLiteral</text><rect x="23.4999" y="1951.5" width="577" height="134" stroke="#191A26" stroke-width="6.875" stroke-miterlimit="8" fill="#E8E8E8"/><text fill="#0E2841" font-family="Open Sans,Open Sans_MSFontService,sans-serif" font-weight="400" font-size="64" transform="matrix(1 0 0 1 292.97 2039)">2</text><rect x="651.5" y="1951.5" width="578" height="134" stroke="#191A26" stroke-width="6.875" stroke-miterlimit="8" fill="#E8E8E8"/><text fill="#0E2841" font-family="Open Sans,Open Sans_MSFontService,sans-serif" font-weight="400" font-size="64" transform="matrix(1 0 0 1 897.39 2039)">“A”</text><path d="M1.09927-3.25699 608.154 201.631 605.956 208.145-1.09927 3.25699ZM607.11 190.395 628.769 212.217 598.316 216.451Z" fill="#494B65" transform="matrix(-1 0 0 1 940.269 1739.5)"/><path d="M943.938 1739.5 943.938 1928.8 937.063 1928.8 937.062 1739.5ZM954.25 1924.22 940.5 1951.72 926.75 1924.22Z" fill="#494B65"/><path d="M943.938 1394.5 943.938 1583.8 937.063 1583.8 937.062 1394.5ZM954.25 1579.22 940.5 1606.72 926.75 1579.22Z" fill="#494B65"/><text fill="#494B65" font-family="Arial,Arial_MSFontService,sans-serif" font-weight="400" font-size="64" transform="matrix(1 0 0 1 975.465 1512)">value<tspan font-size="64" x="-608.332" y="345">value</tspan><tspan font-size="64" x="-4.64508" y="345">unit</tspan></text><rect x="1909.5" y="1260.5" width="577" height="134" stroke="#191A26" stroke-width="6.875" stroke-miterlimit="8" fill="#494B65"/><text fill="#FFFFFF" font-family="Open Sans,Open Sans_MSFontService,sans-serif" font-weight="400" font-size="64" transform="matrix(1 0 0 1 2067.84 1348)">SetValue<tspan fill="#494B65" font-family="Arial,Arial_MSFontService,sans-serif" font-size="64" x="-506.922" y="164">channel</tspan></text><rect x="1280.5" y="1606.5" width="577" height="133" stroke="#191A26" stroke-width="6.875" stroke-miterlimit="8" fill="#E8E8E8"/><text fill="#0E2841" font-family="Open Sans,Open Sans_MSFontService,sans-serif" font-weight="400" font-size="64" transform="matrix(1 0 0 1 1523.01 1694)">“U”</text><rect x="1909.5" y="1606.5" width="577" height="133" stroke="#191A26" stroke-width="6.875" stroke-miterlimit="8" fill="#494B65"/><text fill="#FFFFFF" font-family="Open Sans,Open Sans_MSFontService,sans-serif" font-weight="400" font-size="64" transform="matrix(1 0 0 1 2021.72 1694)">ValueLiteral</text><rect x="1280.5" y="1951.5" width="577" height="134" stroke="#191A26" stroke-width="6.875" stroke-miterlimit="8" fill="#E8E8E8"/><text fill="#0E2841" font-family="Open Sans,Open Sans_MSFontService,sans-serif" font-weight="400" font-size="64" transform="matrix(1 0 0 1 1523.58 2039)">4.2</text><rect x="1909.5" y="1951.5" width="577" height="134" stroke="#191A26" stroke-width="6.875" stroke-miterlimit="8" fill="#E8E8E8"/><text fill="#0E2841" font-family="Open Sans,Open Sans_MSFontService,sans-serif" font-weight="400" font-size="64" transform="matrix(1 0 0 1 2156.07 2039)">“V”</text><path d="M1.09927-3.25699 608.154 201.631 605.956 208.145-1.09927 3.25699ZM607.11 190.395 628.769 212.217 598.316 216.451Z" fill="#494B65" transform="matrix(-1 0 0 1 2198.27 1739.5)"/><path d="M2201.94 1739.5 2201.94 1928.8 2195.06 1928.8 2195.06 1739.5ZM2212.25 1924.22 2198.5 1951.72 2184.75 1924.22Z" fill="#494B65"/><text fill="#494B65" font-family="Arial,Arial_MSFontService,sans-serif" font-weight="400" font-size="64" transform="matrix(1 0 0 1 2231.99 1512)">value<tspan font-size="64" x="-13.0955" y="345">unit</tspan></text><path d="M2201.94 1394.5 2201.94 1583.8 2195.06 1583.8 2195.06 1394.5ZM2212.25 1579.22 2198.5 1606.72 2184.75 1579.22Z" fill="#494B65"/><path d="M1.09927-3.25699 608.155 201.631 605.957 208.145-1.09927 3.25699ZM607.11 190.394 628.769 212.217 598.316 216.45Z" fill="#494B65" transform="matrix(-1 0 0 1 2198.27 1394.5)"/><path d="M1.09927-3.25699 608.155 201.631 605.957 208.145-1.09927 3.25699ZM607.11 190.394 628.769 212.217 598.316 216.45Z" fill="#494B65" transform="matrix(-1 0 0 1 2198.27 1394.5)"/><rect x="3167.5" y="1260.5" width="577" height="134" stroke="#191A26" stroke-width="6.875" stroke-miterlimit="8" fill="#494B65"/><text fill="#FFFFFF" font-family="Open Sans,Open Sans_MSFontService,sans-serif" font-weight="400" font-size="64" transform="matrix(1 0 0 1 3381.24 1348)">Limit</text><rect x="2538.5" y="1611.5" width="577" height="133" stroke="#191A26" stroke-width="6.875" stroke-miterlimit="8" fill="#E8E8E8"/><text fill="#0E2841" font-family="Open Sans,Open Sans_MSFontService,sans-serif" font-weight="400" font-size="64" transform="matrix(1 0 0 1 2795.16 1699)">“I”</text><path d="M2199.07 1045.11 3434.02 1253.51 3432.87 1260.29 2197.93 1051.89ZM3431.21 1242.58 3456.04 1260.72 3426.63 1269.7Z" fill="#494B65"/><text fill="#494B65" font-family="Arial,Arial_MSFontService,sans-serif" font-weight="400" font-size="64" transform="matrix(1 0 0 1 2516.52 1191)">limits</text><path d="M1.12228-3.24914 608.231 206.452 605.987 212.95-1.12228 3.24914ZM607.265 195.208 628.769 217.183 598.287 221.201Z" fill="#494B65" transform="matrix(-1 0 0 1 3455.27 1394.5)"/><text fill="#494B65" font-family="Arial,Arial_MSFontService,sans-serif" font-weight="400" font-size="64" transform="matrix(1 0 0 1 2850.61 1512)">channel</text><rect x="3167.5" y="1611.5" width="577" height="133" stroke="#191A26" stroke-width="6.875" stroke-miterlimit="8" fill="#E8E8E8"/><text fill="#0E2841" font-family="Open Sans,Open Sans_MSFontService,sans-serif" font-weight="400" font-size="64" transform="matrix(1 0 0 1 3396.14 1699)">“&lt;=”</text><rect x="3167.5" y="1951.5" width="577" height="134" stroke="#191A26" stroke-width="6.875" stroke-miterlimit="8" fill="#E8E8E8"/><text fill="#0E2841" font-family="Open Sans,Open Sans_MSFontService,sans-serif" font-weight="400" font-size="64" transform="matrix(1 0 0 1 3418.48 2039)">50</text><rect x="3797.5" y="1951.5" width="577" height="134" stroke="#191A26" stroke-width="6.875" stroke-miterlimit="8" fill="#E8E8E8"/><text fill="#0E2841" font-family="Open Sans,Open Sans_MSFontService,sans-serif" font-weight="400" font-size="64" transform="matrix(1 0 0 1 4013.2 2039)">“mA”</text><rect x="3797.5" y="1611.5" width="577" height="133" stroke="#191A26" stroke-width="6.875" stroke-miterlimit="8" fill="#494B65"/><text fill="#FFFFFF" font-family="Open Sans,Open Sans_MSFontService,sans-serif" font-weight="400" font-size="64" transform="matrix(1 0 0 1 3909.79 1699)">ValueLiteral</text><path d="M2201.94 1048.5 2201.94 1237.8 2195.06 1237.8 2195.06 1048.5ZM2212.25 1233.22 2198.5 1260.72 2184.75 1233.22Z" fill="#494B65"/><path d="M3456.62 1391.25 4065.48 1601.1 4063.24 1607.6 3454.38 1397.75ZM4064.51 1589.86 4086.03 1611.82 4055.55 1615.86Z" fill="#494B65"/><path d="M3458.94 1394.5 3458.94 1588.77 3452.06 1588.77 3452.06 1394.5ZM3469.25 1584.18 3455.5 1611.68 3441.75 1584.18Z" fill="#494B65"/><path d="M1.07275-3.26583 609.827 196.695 607.682 203.227-1.07275 3.26583ZM608.691 185.468 630.527 207.113 600.109 211.594Z" fill="#494B65" transform="matrix(-1 0 0 1 4086.03 1744.5)"/><path d="M4089.94 1744.5 4089.94 1928.7 4083.06 1928.7 4083.06 1744.5ZM4100.25 1924.11 4086.5 1951.61 4072.75 1924.11Z" fill="#494B65"/><text fill="#494B65" font-family="Arial,Arial_MSFontService,sans-serif" font-weight="400" font-size="64" transform="matrix(1 0 0 1 1368.75 1242)">parameters<tspan font-size="64" x="239.581" y="615">value</tspan><tspan font-size="64" x="1805.01" y="318">operator</tspan><tspan font-size="64" x="2480.97" y="270">value</tspan><tspan font-size="64" x="1968.7" y="618">value</tspan></text></g></svg>